<?xml version="1.0" encoding="UTF-8" standalone="no"?>
<!-- Created with Inkscape (http://www.inkscape.org/) -->

<svg
   xmlns:dc="http://purl.org/dc/elements/1.1/"
   xmlns:cc="http://creativecommons.org/ns#"
   xmlns:rdf="http://www.w3.org/1999/02/22-rdf-syntax-ns#"
   xmlns:svg="http://www.w3.org/2000/svg"
   xmlns="http://www.w3.org/2000/svg"
   xmlns:sodipodi="http://sodipodi.sourceforge.net/DTD/sodipodi-0.dtd"
   xmlns:inkscape="http://www.inkscape.org/namespaces/inkscape"
   version="1.0"
   width="500"
   height="500"
   id="svg2520"
   inkscape:version="0.48.2 r9819"
   sodipodi:docname="siris-symbol.svg">
  <sodipodi:namedview
     pagecolor="#ffffff"
     bordercolor="#666666"
     borderopacity="1"
     objecttolerance="10"
     gridtolerance="10"
     guidetolerance="10"
     inkscape:pageopacity="0"
     inkscape:pageshadow="2"
     inkscape:window-width="1920"
     inkscape:window-height="1199"
     id="namedview7"
     showgrid="false"
     inkscape:zoom="1.3350176"
     inkscape:cx="262.78474"
     inkscape:cy="299.50175"
     inkscape:window-x="0"
     inkscape:window-y="0"
     inkscape:window-maximized="1"
     inkscape:current-layer="svg2520" />
  <defs
     id="defs2522" />
  <metadata
     id="metadata2525">
    <rdf:RDF>
      <cc:Work
         rdf:about="">
        <dc:format>image/svg+xml</dc:format>
        <dc:type
           rdf:resource="http://purl.org/dc/dcmitype/StillImage" />
        <dc:title />
      </cc:Work>
    </rdf:RDF>
  </metadata>
  <g
     transform="translate(119.28572,-151.64789)"
     id="layer1"
     style="opacity:0.35">
    <path
       d="m 130.90289,214.11363 c -116.1976,0 -210.51646,84.13854 -210.5164,187.79422 0,53.3727 25.08916,101.47707 65.2092,135.67586 L 51.276051,475.29373 2.65185,463.52507 -1.30593,318.0141 201.8603,225.1256 c -22.17309,-7.08782 -46.06242,-11.01197 -70.95741,-11.01197 z m 145.3072,52.11836 -65.68036,62.28998 48.6242,11.76866 3.95778,145.51097 -203.166229,92.8885 c 22.17309,7.08782 46.062389,11.01197 70.957409,11.01197 116.1976,0 210.5164,-84.13854 210.5164,-187.79422 0,-53.3727 -25.08916,-101.47707 -65.2092,-135.67586 z M 380.90289,151.90785 16.40986,324.487 19.04839,459.40617 74.363121,467.64423 -119.09711,651.90785 245.39592,479.3287 242.75739,344.40953 187.44266,336.17147 380.90289,151.90785 z m -99.32152,67.50155 -175.65021,171.57041 66.43423,-34.88554 51.26272,0.58829 3.95778,108.01964 L -19.77559,584.4063 155.87462,412.83589 89.440391,447.72143 38.177671,447.13314 34.21989,339.1135 281.58137,219.4094 z"
       id="path8676"
       style="opacity:0.50000000000000000;fill:#000000;fill-opacity:1;fill-rule:nonzero;stroke:none;stroke-width:1;marker:none;visibility:visible;display:inline;overflow:visible;enable-background:accumulate" />
  </g>
</svg>
